<svg width="169" height="169" xmlns="http://www.w3.org/2000/svg" xmlns:xlink="http://www.w3.org/1999/xlink" xml:space="preserve" overflow="hidden"><defs><filter id="fx0" x="-10%" y="-10%" width="120%" height="120%" filterUnits="userSpaceOnUse" primitiveUnits="userSpaceOnUse"><feComponentTransfer color-interpolation-filters="sRGB"><feFuncR type="discrete" tableValues="0.000000 0.000000"/><feFuncG type="discrete" tableValues="0.000000 0.000000"/><feFuncB type="discrete" tableValues="0.000000 0.000000"/><feFuncA type="linear" slope="0.431373" intercept="0.000000"/></feComponentTransfer><feGaussianBlur stdDeviation="1.777778 1.777778"/></filter><clipPath id="clip1"><rect x="312" y="180" width="169" height="169"/></clipPath><clipPath id="clip2"><rect x="312" y="180" width="169" height="169"/></clipPath><clipPath id="clip3"><rect x="35.5919" y="30.7972" width="100.358" height="108.372"/></clipPath></defs><g clip-path="url(#clip1)" transform="translate(-312 -180)"><g clip-path="url(#clip2)"><g clip-path="url(#clip3)" filter="url(#fx0)" transform="translate(311 179)"><g><g><g><g><g><path d="M73.3256 109.646C69.4989 107.911 66.1783 105.521 63.4091 102.474 57.7947 96.2954 55.3956 88.9046 55.9165 80.6331 56.2086 75.9961 57.565 71.5698 60.0818 67.6328 63.1704 62.8009 67.1923 58.9363 72.3601 56.2695 77.0686 53.8398 82.0227 52.7285 87.2787 52.9716 93.6318 53.2652 99.2485 55.5151 104.209 59.4923 107.091 61.8031 109.596 64.448 111.421 67.6532 114.146 72.4409 115.718 77.6026 115.565 83.1482 115.367 90.3104 112.965 96.6896 108.242 102.123 103.282 107.83 96.9871 111.166 89.551 112.319 86.0314 112.865 82.5305 112.499 79.0691 111.675 77.0973 111.205 75.1889 110.583 73.3256 109.646M105.003 63.468C101.111 59.6635 96.5683 57.0767 91.2029 55.9573 87.8332 55.2542 84.48 55.1653 81.0959 55.8003 73.646 57.1984 67.725 61.0635 63.357 67.1675 59.3187 72.8108 57.5258 79.1587 58.4149 86.1326 59.1235 91.6902 61.3818 96.5569 65.1288 100.721 67.0589 102.866 69.3773 104.517 71.8065 106.063 75.726 108.558 80.02 109.781 84.5936 110.124 89.2333 110.473 93.5903 109.293 97.6848 107.247 104.088 104.047 108.653 99.0604 111.287 92.3947 113.626 86.478 113.784 80.4593 111.76 74.4136 110.375 70.2785 108.168 66.637 105.003 63.468Z" fill="#000000" fill-rule="nonzero" fill-opacity="1"/><path d="M127.672 51.6366C128.461 53.9491 129.034 56.26 129.154 58.639 129.326 62.0863 128.425 65.2128 126.006 67.7921 125.472 68.3622 124.813 68.7689 124.097 69.0438 123.066 69.4398 122.653 70.198 122.649 71.2392 122.644 72.8997 122.661 74.5603 122.649 76.2207 122.641 77.3714 122.58 77.416 121.417 77.4251 119.671 77.4387 119.657 77.4386 119.68 75.6527 119.703 73.8432 119.948 72.0376 119.682 70.2227 119.61 69.7347 119.461 69.4136 119.008 69.2266 113.777 67.0657 112.672 61.8569 113.154 57.5549 113.454 54.8709 113.969 52.2626 115.361 49.8921 116.332 48.2395 117.493 46.7788 119.129 45.7315 120.843 44.634 122.356 44.7004 123.889 46.0562 125.604 47.5741 126.784 49.4756 127.672 51.6366M117.278 50.9606C117.028 51.4338 116.74 51.8913 116.533 52.3828 115.264 55.4035 114.921 58.5449 115.478 61.762 115.974 64.625 117.687 66.4624 120.464 67.2935 121.434 67.5838 121.885 67.1537 121.674 66.221 121.582 65.8143 121.247 65.7389 120.952 65.6159 118.817 64.7266 117.522 63.1464 117.196 60.8651 116.624 56.8653 117.485 53.2071 120.015 50.0047 120.328 49.6092 120.758 49.3081 121.123 48.9518 121.625 48.4609 121.511 48.0414 120.827 47.8609 120.224 47.7018 119.727 47.9249 119.282 48.3186 118.468 49.0407 117.911 49.9597 117.278 50.9606Z" fill="#000000" fill-rule="nonzero" fill-opacity="1"/><path d="M51.491 75.3651C51.4281 77.3374 51.4275 77.3201 49.3402 77.2876 48.7419 77.2784 48.4998 77.0416 48.5067 76.4722 48.5198 75.3991 48.4877 74.3239 48.5431 73.2531 48.634 71.4928 48.1213 70.1344 46.5697 69.0722 44.4514 67.6222 43.8993 65.3447 43.981 62.9174 44.1047 59.239 44.0522 55.5599 44.1096 51.8816 44.1336 50.3496 44.1777 48.8178 44.2207 47.2861 44.2263 47.085 44.2378 46.8651 44.3205 46.6883 44.5577 46.1812 44.9173 45.7158 45.5226 45.7847 46.1428 45.8552 46.3733 46.3926 46.4248 46.9594 46.4639 47.3899 46.4274 47.8274 46.4262 48.2616 46.4133 53.0645 46.4666 57.868 46.2998 62.6695 46.2839 63.1289 46.286 63.5888 46.4344 64.0353 46.7336 64.9355 47.6924 65.1875 48.3781 64.5385 48.8365 64.1045 48.9671 63.5634 48.9667 62.9414 48.9628 57.7795 48.9768 52.6179 48.986 47.456 48.9868 47.0732 48.9636 46.6857 49.097 46.3175 49.2985 45.7611 49.6631 45.3761 50.2918 45.455 50.889 45.5302 51.1377 45.9742 51.1838 46.5361 51.2068 46.8154 51.199 47.0979 51.199 47.3789 51.1992 52.4639 51.1966 57.5491 51.2006 62.6341 51.2009 63.0156 51.2105 63.4033 51.2781 63.7768 51.3882 64.3864 51.7346 64.855 52.3942 64.837 53.0544 64.8192 53.4738 64.3961 53.5764 63.735 53.6505 63.2572 53.6978 62.7701 53.7 62.287 53.7207 57.5086 53.7268 52.7302 53.746 47.9519 53.7478 47.5203 53.7748 47.0818 53.8558 46.6591 53.9652 46.0876 54.3666 45.7847 54.9376 45.7508 55.5228 45.716 55.8305 46.0849 55.9619 46.5967 56.0432 46.9134 56.0695 47.2513 56.0722 47.5801 56.116 53.0479 56.0579 58.5152 55.9498 63.9821 55.9156 65.7139 55.4504 67.3427 54.0607 68.4223 51.9641 70.051 51.2317 72.1332 51.4937 74.6782 51.5146 74.8803 51.4936 75.0866 51.491 75.3651Z" fill="#000000" fill-rule="nonzero" fill-opacity="1"/><path d="M51.7488 91.3791C52.2552 97.6603 52.8739 103.853 54.1652 109.961 54.4868 111.482 54.8011 113.015 54.7124 114.589 54.6073 116.452 53.7647 117.911 52.0832 118.698 50.3921 119.49 48.6887 119.229 47.2812 118.002 45.745 116.664 45.4233 114.849 45.635 112.895 46.0226 109.319 46.7685 105.795 47.2208 102.23 47.519 99.8784 47.6832 97.5088 47.8918 95.1457 48.0532 93.3164 48.2007 91.4858 48.3309 89.6541 48.3614 89.2238 48.5221 88.9848 48.9559 88.9446 49.0315 88.9376 49.1048 88.9085 49.1801 88.8942 51.1995 88.5097 51.5495 88.7732 51.684 90.7742 51.6959 90.9524 51.7226 91.1296 51.7488 91.3791M48.8689 114.32C48.5021 113.436 48.6965 112.507 48.658 111.597 48.6444 111.277 48.527 111.046 48.1866 111.011 47.8642 110.977 47.7271 111.204 47.6783 111.471 47.4234 112.865 47.3107 114.259 47.9664 115.582 48.4423 116.541 49.3972 116.961 50.3993 116.703 50.7611 116.61 51.0839 116.443 51.1081 116.011 51.1349 115.537 50.7455 115.513 50.4287 115.46 49.7623 115.348 49.2178 115.077 48.8689 114.32Z" fill="#000000" fill-rule="nonzero" fill-opacity="1"/><path d="M119.199 94.6978C119.307 93.1508 119.414 91.6751 119.515 90.1991 119.591 89.0883 119.805 88.8718 120.907 88.8307 121.187 88.8203 121.468 88.826 121.749 88.8298 122.413 88.8387 122.788 89.1213 122.822 89.8379 122.958 92.6924 123.22 95.5357 123.545 98.3757 123.946 101.874 124.428 105.354 125.175 108.801 125.562 110.588 125.925 112.404 125.848 114.256 125.797 115.476 125.473 116.621 124.663 117.584 122.8 119.802 119.093 119.805 117.395 116.905 116.407 115.217 116.572 113.461 116.779 111.631 117.174 108.156 118.247 104.803 118.543 101.314 118.729 99.1297 118.977 96.9504 119.199 94.6978M118.35 112.88C118.314 113.728 118.404 114.56 118.676 115.367 119.148 116.765 120.767 117.38 122.052 116.652 122.284 116.521 122.507 116.362 122.443 116.064 122.384 115.791 122.122 115.79 121.891 115.75 120.246 115.469 119.566 114.688 119.507 113.008 119.49 112.524 119.499 112.039 119.493 111.555 119.49 111.291 119.463 111.005 119.164 110.932 118.82 110.849 118.672 111.14 118.545 111.388 118.327 111.811 118.349 112.277 118.35 112.88Z" fill="#000000" fill-rule="nonzero" fill-opacity="1"/><path d="M83.7882 39.7626C91.3291 39.284 98.2978 41.1148 104.907 44.4416 107.231 45.6113 109.432 47.0261 111.424 48.7286 112.285 49.4645 112.293 49.4964 111.765 50.4634 110.966 51.9235 110.971 51.9176 109.724 50.8559 105.386 47.1626 100.407 44.7657 94.9017 43.3357 91.0159 42.3264 87.0662 42.0412 83.1252 42.3583 74.9577 43.0152 67.5327 45.6646 61.3741 51.3022 60.8627 51.7703 60.4741 52.4081 59.7411 52.6021 58.9808 51.0753 59.2336 49.7575 60.3631 48.7136 64.5006 44.8891 69.4507 42.6434 74.8153 41.1696 77.7326 40.368 80.7035 39.9455 83.7882 39.7626Z" fill="#000000" fill-rule="nonzero" fill-opacity="1"/><path d="M106.962 52.2277C108.013 53.0068 108.969 53.8078 109.815 54.7409 110.353 55.3338 110.636 55.9572 110.372 56.7564 110.224 57.2047 110.327 57.7121 110.104 58.1359 109.711 58.1805 109.574 57.893 109.388 57.7035 105.525 53.767 100.983 50.8945 95.7501 49.174 91.4399 47.757 86.9933 47.556 82.4969 47.9448 77.8182 48.3494 73.4265 49.6597 69.3893 52.0627 66.7436 53.6373 64.3254 55.5101 62.3011 57.8603 61.6184 58.653 60.8685 59.3876 60.1581 60.1568 59.7831 60.5626 59.4848 60.4672 59.4458 59.9671 59.344 58.659 59.2103 57.4254 60.2857 56.2614 65.5149 50.6012 71.868 47.0207 79.4491 45.687 82.8854 45.0825 86.3664 45.1469 89.8373 45.4205 96.2243 45.924 101.789 48.5144 106.962 52.2277Z" fill="#000000" fill-rule="nonzero" fill-opacity="1"/><path d="M89.9141 118.9C91.6649 116.684 93.9397 115.426 96.5818 114.715 98.401 114.226 100.264 113.853 101.962 112.979 102.046 112.935 102.158 112.947 102.248 112.935 103.385 115.107 101.485 120.595 98.9134 123.104 95.7277 126.211 90.1408 126.458 88.2004 125.315 90.039 124.194 91.5637 122.783 93.1648 121.467 94.7216 120.188 96.6291 119.324 97.8412 117.626 93.1337 118.27 90.1904 121.454 87.3428 124.856 86.9981 124.382 87.1408 123.938 87.2891 123.526 87.8916 121.853 88.8539 120.379 89.9141 118.9Z" fill="#000000" fill-rule="nonzero" fill-opacity="1"/><path d="M81.0959 123.48C81.9592 124.114 82.7795 124.714 83.6986 125.387 82.6784 125.835 81.669 125.943 80.6807 125.908 76.2942 125.757 72.9093 123.81 70.6606 120.028 69.7735 118.536 69.4602 116.841 69.3626 115.113 69.3296 114.528 69.2661 113.944 69.2539 113.358 69.2453 112.956 69.4872 112.752 69.8474 112.983 71.9411 114.325 74.4209 114.54 76.6986 115.343 79.1746 116.216 81.1462 117.662 82.6332 119.83 83.4604 121.036 84.2863 122.226 84.6652 123.66 84.7848 124.112 85.0089 124.57 84.6969 125.175 83.1427 123.578 82.1533 121.543 80.2068 120.405 78.3291 119.307 76.5564 118.008 74.3263 117.562 74.171 118.071 74.4427 118.329 74.6664 118.588 75.0868 119.074 75.5908 119.466 76.1314 119.812 77.8535 120.913 79.5561 122.04 81.0959 123.48Z" fill="#000000" fill-rule="nonzero" fill-opacity="1"/><path d="M129.709 92.4302C129.267 95.0954 128.969 97.7339 127.539 100.125 127.122 99.7708 127.138 99.3605 127.053 99.0104 126.909 98.4163 126.939 97.7552 126.692 97.215 125.834 95.3367 126.701 93.5605 126.931 91.7575 127.735 85.4509 127.866 79.1838 126.013 73.0145 125.816 72.3586 125.863 71.9106 126.514 71.5653 127.01 71.3024 127.359 70.8384 127.707 70.4294 128.123 70.483 128.116 70.8223 128.226 71.0592 129.277 73.3159 129.596 75.7593 129.941 78.1793 130.616 82.9123 130.499 87.6462 129.709 92.4302Z" fill="#000000" fill-rule="nonzero" fill-opacity="1"/><path d="M43.8452 88.828C44.1273 90.9961 44.3099 93.1082 44.8628 95.1619 44.9275 95.4019 44.952 95.6828 44.8948 95.9204 44.5808 97.2238 44.0834 98.4764 43.9033 99.8019 43.4813 99.8039 43.4804 99.5293 43.4076 99.3326 42.002 95.5431 41.3453 91.6186 41.1207 87.5884 40.9252 84.0815 41.1073 80.6005 41.461 77.1204 41.6582 75.1814 42.1501 73.3074 42.8924 71.5037 42.995 71.2542 43.0689 70.9642 43.3434 70.8223 44.611 71.5506 45.1426 72.7897 44.8206 74.1497 43.7834 78.5301 43.5106 82.9717 43.788 87.4555 43.8148 87.8887 43.8248 88.3229 43.8452 88.828Z" fill="#000000" fill-rule="nonzero" fill-opacity="1"/><path d="M74.0385 127.79C68.4749 126.103 63.8053 122.964 59.3952 119.396 57.3922 117.776 57.3979 117.598 58.7399 115.333 58.8465 115.153 59.2365 115.576 59.4429 115.777 61.9827 118.248 64.7456 120.413 67.9212 122.022 68.7107 122.422 69.3592 122.999 69.8334 123.749 71.024 125.634 72.6591 126.949 74.7694 127.677 74.9724 127.747 75.2295 127.777 75.3313 128.097 74.8599 128.193 74.489 127.939 74.0385 127.79Z" fill="#000000" fill-rule="nonzero" fill-opacity="1"/><path d="M101.495 124.648C102.408 123.137 103.709 122.137 105.161 121.29 107.892 119.696 110.279 117.667 112.492 115.423 112.6 115.314 112.708 115.204 112.827 115.11 112.882 115.066 112.966 115.059 113.139 115 113.474 115.815 113.714 116.671 114.105 117.463 114.264 117.783 113.893 117.945 113.706 118.129 111.788 120.022 109.586 121.555 107.369 123.061 104.549 124.975 101.515 126.489 98.3323 127.706 97.8207 127.902 97.8237 127.91 97.1746 127.84 98.8214 126.935 100.456 126.221 101.495 124.648Z" fill="#000000" fill-rule="nonzero" fill-opacity="1"/><path d="M66.0289 117.421C63.183 115.625 60.8686 113.358 58.921 110.691 57.7012 109.021 56.8221 107.202 56.294 105.209 56.2209 104.933 56.0055 104.589 56.4119 104.408 56.8148 104.228 57.1636 104.394 57.4179 104.732 58.1231 105.669 58.8315 106.604 59.5176 107.555 61.4341 110.212 63.5056 112.716 66.1534 114.7 67.1735 115.464 66.6859 116.601 66.7615 117.567 66.4326 117.763 66.2664 117.557 66.0289 117.421Z" fill="#000000" fill-rule="nonzero" fill-opacity="1"/><path d="M110.691 109.621C111.704 108.271 112.663 106.949 113.676 105.67 114.034 105.217 114.414 104.681 115.275 104.752 114.075 110.673 110.062 114.349 105.404 117.691 105.404 116.765 105.368 115.915 105.419 115.07 105.446 114.637 105.87 114.419 106.173 114.147 107.747 112.732 109.349 111.344 110.691 109.621Z" fill="#000000" fill-rule="nonzero" fill-opacity="1"/><path d="M87.6106 132.719C85.8868 133.836 83.7676 132.891 83.1792 131.667 82.5391 130.336 82.9918 128.669 84.2514 127.92 85.6148 127.109 87.483 127.453 88.3039 128.665 89.2035 129.993 88.9356 131.663 87.6106 132.719Z" fill="#000000" fill-rule="nonzero" fill-opacity="1"/><path d="M60.6494 37.2197C60.8424 36.7967 60.7365 36.1306 61.2827 36.1583 61.8172 36.1856 61.8066 36.8234 61.9351 37.2475 62.0162 37.5153 62.0785 37.7895 62.1377 38.0632 62.3071 38.8468 62.7592 39.3205 63.574 39.4377 63.9257 39.4883 64.2754 39.5727 64.6159 39.6752 64.8697 39.7514 65.0852 39.9154 65.0701 40.2176 65.0567 40.4855 64.8505 40.6121 64.6158 40.6691 64.2205 40.7651 63.8231 40.8556 63.4226 40.9263 62.6869 41.0563 62.274 41.4816 62.0736 42.2033 61.8677 42.945 61.869 43.7685 61.3243 44.4462 60.7707 44.1707 60.6896 43.665 60.637 43.2138 60.4628 41.7151 59.7437 40.8235 58.1605 40.7371 57.8945 40.7225 57.4688 40.7308 57.4379 40.3254 57.4044 39.8831 57.7897 39.7538 58.1363 39.6393 58.2084 39.6155 58.2855 39.599 58.3611 39.5954 59.8366 39.5271 60.4283 38.5929 60.6494 37.2197Z" fill="#000000" fill-rule="nonzero" fill-opacity="1"/><path d="M111.836 39.2495C112.298 39.5711 112.795 39.5853 113.263 39.6995 113.575 39.7757 113.865 39.9245 113.866 40.294 113.866 40.6817 113.501 40.7116 113.251 40.7366 111.787 40.8826 111.098 41.7522 110.928 43.1371 110.918 43.2129 110.898 43.2875 110.877 43.3611 110.789 43.6715 110.773 44.0997 110.345 44.0816 109.977 44.0661 109.909 43.6518 109.879 43.3728 109.713 41.8278 108.908 40.96 107.336 40.8258 107.096 40.8054 106.767 40.785 106.721 40.4743 106.67 40.1356 106.955 39.9479 107.233 39.9055 108.911 39.6483 109.607 38.4883 109.972 37.0017 110.001 36.8807 110.069 36.7661 110.134 36.6578 110.171 36.5963 110.24 36.5542 110.368 36.435 111.175 37.205 111.012 38.4691 111.836 39.2495Z" fill="#000000" fill-rule="nonzero" fill-opacity="1"/><path d="M87.9872 118.257C87.6764 119.36 86.9581 120.017 86.1519 119.995 85.0405 119.966 83.9991 119.095 83.8021 118.029 83.6513 117.212 84.2915 116.106 85.1366 115.723 86.2833 115.204 87.7193 116.105 87.9608 117.505 87.9994 117.729 87.9827 117.963 87.9872 118.257Z" fill="#000000" fill-rule="nonzero" fill-opacity="1"/><path d="M121.53 79.6291C122.142 79.624 122.678 79.6047 123.214 79.6182 123.909 79.6355 124.425 80.0979 124.465 80.7063 124.506 81.3294 123.999 81.9822 123.347 82.0221 122.023 82.1029 120.695 82.1545 119.369 82.1631 118.691 82.1674 118.142 81.5929 118.13 80.9407 118.117 80.2509 118.513 79.8551 119.163 79.7131 119.919 79.548 120.69 79.6616 121.53 79.6291Z" fill="#000000" fill-rule="nonzero" fill-opacity="1"/><path d="M48.4405 82.1654C47.5931 82.2093 47.1163 81.8099 46.8828 81.1089 46.6532 80.4194 47.0862 79.6626 47.8002 79.6574 49.197 79.6475 50.5931 79.438 51.9902 79.6142 52.6858 79.7017 53.0729 80.1428 53.0326 80.7724 52.9852 81.5112 52.5489 81.9848 51.8644 82.0182 50.7469 82.0727 49.6289 82.1165 48.4405 82.1654Z" fill="#000000" fill-rule="nonzero" fill-opacity="1"/><path d="M52.1199 86.5499C50.6808 86.5808 49.3072 86.6039 47.9338 86.6185 47.305 86.6251 46.953 86.2732 46.7921 85.694 46.633 85.1204 46.9547 84.7696 47.3814 84.4947 47.5678 84.3745 47.7985 84.2707 48.0149 84.2579 49.1566 84.1903 50.3 84.1416 51.4434 84.114 51.8537 84.104 52.2537 84.2147 52.5801 84.491 52.9565 84.8096 53.1405 85.2121 53.0507 85.71 52.9637 86.191 52.6786 86.4762 52.1199 86.5499Z" fill="#000000" fill-rule="nonzero" fill-opacity="1"/><path d="M118.266 85.6427C118.314 84.8729 118.818 84.5223 119.399 84.4136 120.647 84.1801 121.92 84.0715 123.19 84.1951 123.976 84.2716 124.508 84.8781 124.48 85.538 124.451 86.2559 123.98 86.6041 123.022 86.6229 121.93 86.6445 120.838 86.6041 119.744 86.7007 119.043 86.7626 118.419 86.5404 118.266 85.6427Z" fill="#000000" fill-rule="nonzero" fill-opacity="1"/><path d="M90.3259 57.4826C95.2392 58.3951 99.4618 60.5414 103.103 63.8538 108.009 68.3159 110.699 73.9487 111.517 80.4363 111.975 84.0652 111.377 87.6669 110.141 91.1345 108.337 96.1959 105.196 100.258 100.914 103.459 96.6735 106.629 91.8636 108.286 86.6036 108.454 81.3633 108.621 76.526 107.152 72.0711 104.376 68.4054 102.092 65.4017 99.1789 63.1746 95.4602 61.4266 92.5415 60.4665 89.3848 59.9624 86.0366 59.3449 81.9361 59.9401 77.9744 61.3051 74.1425 63.0608 69.2142 66.3003 65.343 70.4392 62.2001 73.5599 59.8303 77.0287 58.2196 80.8863 57.4839 84.0079 56.8884 87.135 56.9985 90.3259 57.4826M76.6102 99.8295C77.0947 100.059 77.5736 100.302 78.0649 100.517 81.567 102.048 85.2099 102.673 88.9807 101.905 94.1456 100.853 98.4635 98.4304 101.507 93.9564 104.859 89.0282 106.235 83.7745 104.469 77.9235 102.827 72.4846 99.6597 68.2182 94.5237 65.678 89.5483 63.2173 84.3645 63.1373 79.1265 64.9189 70.9011 67.7167 65.4371 76.8001 66.3624 84.8383 67.1397 91.5914 70.5925 96.5181 76.6102 99.8295M86.2418 106.542C86.3488 106.434 86.4704 106.337 86.5602 106.216 86.9049 105.754 86.969 105.285 86.5246 104.846 86.1726 104.497 85.766 104.407 85.3652 104.742 84.9861 105.059 84.6141 105.449 84.8912 105.982 85.1376 106.456 85.4733 106.927 86.2418 106.542Z" fill="#000000" fill-rule="nonzero" fill-opacity="1"/><path d="M100.885 74.5739C104.37 80.9398 103.967 87.1019 99.9107 92.9534 96.5239 97.8394 91.5885 100.284 85.7588 100.174 77.9355 100.027 71.9322 95.9942 69.2034 88.368 66.6232 81.1571 69.6165 72.8804 76.4237 68.5259 82.3378 64.7429 90.9059 65.0209 96.4966 69.4362 98.2812 70.8456 99.7349 72.5449 100.885 74.5739M80.6992 97.5922C81.8051 97.8821 82.5214 97.5557 82.7384 96.4192 82.91 95.5201 81.8904 95.9037 81.4962 95.5724 81.443 95.5276 81.3485 95.5359 81.278 95.5074 78.5848 94.4182 76.0837 93.0861 74.6977 90.3317 74.4226 89.785 74.1241 89.2495 73.8242 88.7156 73.7106 88.5135 73.5585 88.2866 73.2839 88.462 72.7835 88.7815 72.3048 89.1211 72.3474 89.8319 72.3839 90.4397 72.6179 90.9663 72.9268 91.4723 74.7362 94.4347 77.4435 96.2681 80.6992 97.5922M86.3036 81.9433C87.1943 80.9922 87.2085 80.0283 86.3449 79.1262 86.1639 78.9368 85.9948 78.7732 85.686 78.9158 84.727 79.3584 84.34 81.0341 85.0244 81.8461 85.3701 82.2561 85.7596 82.3833 86.3036 81.9433M87.244 83.8006C87.39 84.2782 87.7455 84.5577 88.1811 84.7319 88.8163 84.9859 89.325 84.7043 89.7476 84.2609 90.0229 83.972 90.3184 83.6473 90.1266 83.1856 89.9339 82.7217 88.935 82.3376 88.2339 82.4891 87.6115 82.6236 87.1612 82.9515 87.244 83.8006M81.9307 82.917C81.537 83.4616 81.807 83.8702 82.2025 84.2557 82.6446 84.6866 83.1544 84.8665 83.7367 84.5971 84.1735 84.3949 84.5105 84.0465 84.5344 83.5502 84.5594 83.0299 84.1215 82.8152 83.7193 82.6492 83.1264 82.4042 82.5302 82.3372 81.9307 82.917M86.6519 86.5332C86.9314 86.0524 86.8958 85.5532 86.7138 85.0578 86.4855 84.4363 86.0582 84.2931 85.5264 84.6807 85.1293 84.9701 84.7979 85.3303 84.786 85.8693 84.7727 86.4678 84.7802 87.1551 85.395 87.3941 85.9577 87.6128 86.2589 87.0065 86.6519 86.5332Z" fill="#000000" fill-rule="nonzero" fill-opacity="1"/></g></g></g></g></g></g><g><g><g><path d="M384.326 288.646C380.499 286.911 377.178 284.521 374.409 281.474 368.795 275.295 366.396 267.905 366.917 259.633 367.209 254.996 368.565 250.57 371.082 246.633 374.17 241.801 378.192 237.936 383.36 235.269 388.069 232.84 393.023 231.729 398.279 231.972 404.632 232.265 410.249 234.515 415.209 238.492 418.091 240.803 420.596 243.448 422.421 246.653 425.146 251.441 426.718 256.603 426.565 262.148 426.367 269.31 423.965 275.69 419.242 281.123 414.282 286.83 407.987 290.166 400.551 291.319 397.031 291.865 393.53 291.499 390.069 290.675 388.097 290.205 386.189 289.583 384.326 288.646M416.003 242.468C412.111 238.664 407.568 236.077 402.203 234.957 398.833 234.254 395.48 234.165 392.096 234.8 384.646 236.198 378.725 240.064 374.357 246.167 370.319 251.811 368.526 258.159 369.415 265.133 370.124 270.69 372.382 275.557 376.129 279.721 378.059 281.866 380.377 283.517 382.807 285.063 386.726 287.558 391.02 288.781 395.594 289.124 400.233 289.473 404.59 288.293 408.685 286.247 415.088 283.047 419.653 278.06 422.287 271.395 424.626 265.478 424.784 259.459 422.76 253.414 421.375 249.279 419.168 245.637 416.003 242.468Z" fill="#000000" fill-rule="nonzero" fill-opacity="1"/><path d="M438.672 230.637C439.461 232.949 440.034 235.26 440.154 237.639 440.326 241.086 439.425 244.213 437.006 246.792 436.472 247.362 435.813 247.769 435.097 248.044 434.066 248.44 433.653 249.198 433.649 250.239 433.644 251.9 433.661 253.56 433.649 255.221 433.641 256.371 433.58 256.416 432.417 256.425 430.671 256.439 430.657 256.439 430.68 254.653 430.703 252.843 430.948 251.038 430.682 249.223 430.61 248.735 430.461 248.414 430.008 248.227 424.777 246.066 423.672 240.857 424.154 236.555 424.454 233.871 424.969 231.263 426.361 228.892 427.332 227.239 428.493 225.779 430.129 224.731 431.843 223.634 433.356 223.7 434.889 225.056 436.604 226.574 437.784 228.476 438.672 230.637M428.278 229.961C428.028 230.434 427.74 230.891 427.533 231.383 426.264 234.404 425.921 237.545 426.478 240.762 426.974 243.625 428.687 245.462 431.464 246.294 432.434 246.584 432.885 246.154 432.674 245.221 432.582 244.814 432.247 244.739 431.952 244.616 429.817 243.727 428.522 242.146 428.196 239.865 427.624 235.865 428.485 232.207 431.015 229.005 431.328 228.609 431.758 228.308 432.123 227.952 432.625 227.461 432.511 227.041 431.827 226.861 431.224 226.702 430.727 226.925 430.282 227.319 429.468 228.041 428.911 228.96 428.278 229.961Z" fill="#000000" fill-rule="nonzero" fill-opacity="1"/><path d="M362.491 254.365C362.428 256.337 362.427 256.32 360.34 256.288 359.742 256.278 359.5 256.042 359.507 255.472 359.52 254.399 359.488 253.324 359.543 252.253 359.634 250.493 359.121 249.134 357.57 248.072 355.451 246.622 354.899 244.345 354.981 241.917 355.105 238.239 355.052 234.56 355.11 230.882 355.134 229.35 355.178 227.818 355.221 226.286 355.226 226.085 355.238 225.865 355.32 225.688 355.558 225.181 355.917 224.716 356.523 224.785 357.143 224.855 357.373 225.393 357.425 225.959 357.464 226.39 357.427 226.827 357.426 227.262 357.413 232.064 357.467 236.868 357.3 241.67 357.284 242.129 357.286 242.589 357.434 243.035 357.734 243.935 358.692 244.188 359.378 243.538 359.837 243.104 359.967 242.563 359.967 241.941 359.963 236.78 359.977 231.618 359.986 226.456 359.987 226.073 359.964 225.686 360.097 225.317 360.298 224.761 360.663 224.376 361.292 224.455 361.889 224.53 362.138 224.974 362.184 225.536 362.207 225.815 362.199 226.098 362.199 226.379 362.199 231.464 362.197 236.549 362.201 241.634 362.201 242.016 362.211 242.403 362.278 242.777 362.388 243.386 362.735 243.855 363.394 243.837 364.054 243.819 364.474 243.396 364.576 242.735 364.65 242.257 364.698 241.77 364.7 241.287 364.721 236.509 364.727 231.73 364.746 226.952 364.748 226.52 364.775 226.082 364.856 225.659 364.965 225.088 365.367 224.785 365.938 224.751 366.523 224.716 366.831 225.085 366.962 225.597 367.043 225.913 367.07 226.251 367.072 226.58 367.116 232.048 367.058 237.515 366.95 242.982 366.916 244.714 366.45 246.343 365.061 247.422 362.964 249.051 362.232 251.133 362.494 253.678 362.515 253.88 362.494 254.087 362.491 254.365Z" fill="#000000" fill-rule="nonzero" fill-opacity="1"/><path d="M362.749 270.379C363.255 276.66 363.874 282.853 365.165 288.961 365.487 290.482 365.801 292.015 365.712 293.589 365.607 295.452 364.765 296.911 363.083 297.698 361.392 298.49 359.689 298.229 358.281 297.002 356.745 295.664 356.423 293.849 356.635 291.895 357.023 288.319 357.769 284.795 358.221 281.23 358.519 278.878 358.683 276.509 358.892 274.146 359.053 272.316 359.201 270.486 359.331 268.654 359.361 268.224 359.522 267.985 359.956 267.945 360.032 267.938 360.105 267.908 360.18 267.894 362.199 267.51 362.55 267.773 362.684 269.774 362.696 269.952 362.723 270.13 362.749 270.379M359.869 293.32C359.502 292.436 359.697 291.507 359.658 290.597 359.644 290.277 359.527 290.046 359.187 290.01 358.864 289.977 358.727 290.204 358.678 290.471 358.423 291.865 358.311 293.259 358.966 294.582 359.442 295.541 360.397 295.961 361.399 295.703 361.761 295.61 362.084 295.443 362.108 295.011 362.135 294.537 361.746 294.513 361.429 294.46 360.762 294.348 360.218 294.077 359.869 293.32Z" fill="#000000" fill-rule="nonzero" fill-opacity="1"/><path d="M430.199 273.698C430.307 272.151 430.414 270.675 430.515 269.199 430.591 268.088 430.805 267.872 431.907 267.831 432.187 267.82 432.468 267.826 432.749 267.83 433.413 267.839 433.788 268.121 433.822 268.838 433.958 271.692 434.22 274.536 434.545 277.376 434.946 280.874 435.428 284.354 436.175 287.801 436.562 289.588 436.925 291.405 436.848 293.256 436.797 294.476 436.473 295.621 435.663 296.584 433.8 298.802 430.093 298.805 428.395 295.905 427.407 294.217 427.572 292.461 427.779 290.631 428.174 287.156 429.247 283.803 429.543 280.314 429.729 278.13 429.977 275.95 430.199 273.698M429.35 291.88C429.314 292.728 429.404 293.56 429.676 294.367 430.148 295.765 431.767 296.38 433.052 295.652 433.284 295.521 433.507 295.362 433.443 295.064 433.384 294.791 433.122 294.79 432.891 294.75 431.246 294.469 430.566 293.688 430.507 292.008 430.49 291.524 430.499 291.039 430.493 290.555 430.49 290.291 430.463 290.005 430.164 289.932 429.82 289.849 429.672 290.14 429.545 290.388 429.327 290.811 429.349 291.277 429.35 291.88Z" fill="#000000" fill-rule="nonzero" fill-opacity="1"/><path d="M394.788 218.763C402.329 218.284 409.298 220.115 415.907 223.442 418.231 224.611 420.432 226.026 422.424 227.729 423.285 228.465 423.293 228.496 422.765 229.463 421.966 230.923 421.971 230.918 420.724 229.856 416.386 226.163 411.407 223.766 405.902 222.336 402.016 221.326 398.066 221.041 394.125 221.358 385.958 222.015 378.533 224.665 372.374 230.302 371.863 230.77 371.474 231.408 370.741 231.602 369.981 230.075 370.234 228.758 371.363 227.714 375.501 223.889 380.451 221.643 385.815 220.17 388.733 219.368 391.704 218.945 394.788 218.763Z" fill="#000000" fill-rule="nonzero" fill-opacity="1"/><path d="M417.962 231.228C419.013 232.007 419.969 232.808 420.815 233.741 421.353 234.334 421.636 234.957 421.372 235.756 421.224 236.205 421.327 236.712 421.104 237.136 420.711 237.18 420.574 236.893 420.388 236.703 416.525 232.767 411.983 229.895 406.75 228.174 402.44 226.757 397.993 226.556 393.497 226.945 388.818 227.349 384.426 228.66 380.389 231.063 377.744 232.637 375.325 234.51 373.301 236.86 372.618 237.653 371.868 238.388 371.158 239.157 370.783 239.563 370.485 239.467 370.446 238.967 370.344 237.659 370.21 236.425 371.286 235.261 376.515 229.601 382.868 226.021 390.449 224.687 393.885 224.082 397.366 224.147 400.837 224.421 407.224 224.924 412.789 227.514 417.962 231.228Z" fill="#000000" fill-rule="nonzero" fill-opacity="1"/><path d="M400.914 297.9C402.665 295.684 404.94 294.426 407.582 293.715 409.401 293.226 411.264 292.853 412.962 291.979 413.046 291.935 413.158 291.947 413.248 291.935 414.385 294.107 412.485 299.595 409.913 302.104 406.728 305.211 401.141 305.458 399.2 304.315 401.039 303.194 402.564 301.783 404.165 300.467 405.722 299.188 407.629 298.324 408.841 296.626 404.134 297.27 401.19 300.454 398.343 303.856 397.998 303.382 398.141 302.938 398.289 302.526 398.892 300.853 399.854 299.379 400.914 297.9Z" fill="#000000" fill-rule="nonzero" fill-opacity="1"/><path d="M392.096 302.48C392.959 303.114 393.779 303.714 394.699 304.387 393.678 304.835 392.669 304.943 391.681 304.908 387.294 304.757 383.909 302.81 381.661 299.028 380.773 297.536 380.46 295.841 380.363 294.113 380.33 293.528 380.266 292.944 380.254 292.358 380.245 291.956 380.487 291.752 380.847 291.983 382.941 293.325 385.421 293.54 387.699 294.343 390.175 295.216 392.146 296.662 393.633 298.83 394.46 300.036 395.286 301.226 395.665 302.66 395.785 303.112 396.009 303.57 395.697 304.175 394.143 302.578 393.153 300.543 391.207 299.405 389.329 298.307 387.556 297.008 385.326 296.562 385.171 297.071 385.443 297.329 385.666 297.588 386.087 298.074 386.591 298.466 387.131 298.812 388.853 299.913 390.556 301.04 392.096 302.48Z" fill="#000000" fill-rule="nonzero" fill-opacity="1"/><path d="M440.709 271.43C440.267 274.095 439.969 276.734 438.539 279.125 438.122 278.771 438.138 278.36 438.053 278.01 437.909 277.416 437.939 276.755 437.692 276.215 436.834 274.337 437.701 272.561 437.931 270.757 438.735 264.451 438.866 258.184 437.013 252.015 436.816 251.359 436.863 250.911 437.514 250.565 438.01 250.302 438.359 249.838 438.707 249.429 439.123 249.483 439.116 249.822 439.226 250.059 440.277 252.316 440.596 254.759 440.941 257.179 441.616 261.912 441.499 266.646 440.709 271.43Z" fill="#000000" fill-rule="nonzero" fill-opacity="1"/><path d="M354.845 267.828C355.127 269.996 355.31 272.108 355.863 274.162 355.927 274.402 355.952 274.683 355.895 274.92 355.581 276.224 355.083 277.476 354.903 278.802 354.481 278.804 354.48 278.529 354.408 278.333 353.002 274.543 352.345 270.619 352.121 266.588 351.925 263.081 352.107 259.6 352.461 256.12 352.658 254.181 353.15 252.307 353.892 250.504 353.995 250.254 354.069 249.964 354.343 249.822 355.611 250.551 356.143 251.79 355.821 253.15 354.783 257.53 354.511 261.972 354.788 266.455 354.815 266.889 354.825 267.323 354.845 267.828Z" fill="#000000" fill-rule="nonzero" fill-opacity="1"/><path d="M385.039 306.79C379.475 305.103 374.805 301.964 370.395 298.396 368.392 296.776 368.398 296.598 369.74 294.333 369.846 294.153 370.237 294.576 370.443 294.777 372.983 297.248 375.746 299.413 378.921 301.022 379.711 301.422 380.359 301.999 380.833 302.749 382.024 304.634 383.659 305.949 385.769 306.677 385.972 306.747 386.23 306.777 386.331 307.097 385.86 307.193 385.489 306.939 385.039 306.79Z" fill="#000000" fill-rule="nonzero" fill-opacity="1"/><path d="M412.495 303.648C413.408 302.137 414.709 301.137 416.161 300.29 418.892 298.696 421.279 296.667 423.492 294.423 423.6 294.314 423.708 294.204 423.827 294.11 423.882 294.066 423.966 294.059 424.139 294 424.474 294.815 424.714 295.671 425.105 296.463 425.264 296.783 424.893 296.945 424.706 297.129 422.788 299.022 420.586 300.555 418.369 302.061 415.549 303.975 412.515 305.489 409.332 306.706 408.821 306.902 408.824 306.91 408.175 306.84 409.821 305.935 411.456 305.221 412.495 303.648Z" fill="#000000" fill-rule="nonzero" fill-opacity="1"/><path d="M377.029 296.421C374.183 294.625 371.869 292.358 369.921 289.691 368.701 288.021 367.822 286.202 367.294 284.209 367.221 283.933 367.005 283.589 367.412 283.408 367.815 283.228 368.164 283.394 368.418 283.732 369.123 284.669 369.831 285.604 370.518 286.555 372.434 289.212 374.506 291.716 377.153 293.7 378.173 294.464 377.686 295.601 377.762 296.567 377.433 296.763 377.266 296.557 377.029 296.421Z" fill="#000000" fill-rule="nonzero" fill-opacity="1"/><path d="M421.691 288.621C422.704 287.271 423.663 285.949 424.676 284.67 425.034 284.217 425.414 283.681 426.275 283.752 425.075 289.673 421.062 293.349 416.404 296.691 416.404 295.765 416.368 294.915 416.419 294.07 416.446 293.637 416.87 293.419 417.173 293.147 418.747 291.732 420.349 290.344 421.691 288.621Z" fill="#000000" fill-rule="nonzero" fill-opacity="1"/><path d="M398.611 311.719C396.887 312.836 394.768 311.891 394.179 310.667 393.539 309.336 393.992 307.669 395.251 306.92 396.615 306.109 398.483 306.453 399.304 307.665 400.203 308.993 399.936 310.663 398.611 311.719Z" fill="#000000" fill-rule="nonzero" fill-opacity="1"/><path d="M371.649 216.22C371.842 215.797 371.736 215.131 372.283 215.158 372.817 215.186 372.807 215.823 372.935 216.247 373.016 216.515 373.078 216.789 373.138 217.063 373.307 217.847 373.759 218.321 374.574 218.438 374.926 218.488 375.275 218.573 375.616 218.675 375.87 218.751 376.085 218.915 376.07 219.218 376.057 219.485 375.851 219.612 375.616 219.669 375.221 219.765 374.823 219.856 374.423 219.926 373.687 220.056 373.274 220.482 373.074 221.203 372.868 221.945 372.869 222.769 372.324 223.446 371.771 223.171 371.69 222.665 371.637 222.214 371.463 220.715 370.744 219.824 369.161 219.737 368.895 219.722 368.469 219.731 368.438 219.325 368.404 218.883 368.79 218.754 369.136 218.639 369.208 218.616 369.285 218.599 369.361 218.595 370.837 218.527 371.428 217.593 371.649 216.22Z" fill="#000000" fill-rule="nonzero" fill-opacity="1"/><path d="M422.836 218.25C423.298 218.571 423.795 218.585 424.263 218.7 424.575 218.776 424.865 218.924 424.866 219.294 424.866 219.682 424.501 219.712 424.251 219.737 422.787 219.883 422.098 220.752 421.928 222.137 421.918 222.213 421.898 222.288 421.877 222.361 421.789 222.671 421.773 223.1 421.345 223.082 420.977 223.066 420.909 222.652 420.879 222.373 420.713 220.828 419.908 219.96 418.336 219.826 418.096 219.805 417.767 219.785 417.721 219.474 417.67 219.136 417.955 218.948 418.233 218.905 419.911 218.648 420.607 217.488 420.972 216.002 421.001 215.881 421.069 215.766 421.134 215.658 421.171 215.596 421.24 215.554 421.368 215.435 422.175 216.205 422.012 217.469 422.836 218.25Z" fill="#000000" fill-rule="nonzero" fill-opacity="1"/><path d="M398.987 297.257C398.676 298.36 397.958 299.017 397.152 298.995 396.04 298.966 394.999 298.095 394.802 297.029 394.651 296.212 395.292 295.106 396.137 294.723 397.283 294.204 398.719 295.105 398.961 296.505 398.999 296.729 398.983 296.963 398.987 297.257Z" fill="#000000" fill-rule="nonzero" fill-opacity="1"/><path d="M432.53 258.629C433.142 258.624 433.678 258.605 434.214 258.618 434.909 258.635 435.425 259.098 435.465 259.706 435.506 260.329 434.999 260.982 434.346 261.022 433.023 261.103 431.695 261.155 430.369 261.163 429.691 261.167 429.142 260.593 429.13 259.941 429.117 259.251 429.513 258.855 430.163 258.713 430.919 258.548 431.69 258.662 432.53 258.629Z" fill="#000000" fill-rule="nonzero" fill-opacity="1"/><path d="M359.44 261.165C358.593 261.209 358.116 260.81 357.883 260.109 357.653 259.419 358.086 258.663 358.8 258.657 360.197 258.647 361.593 258.438 362.99 258.614 363.686 258.702 364.073 259.143 364.033 259.772 363.985 260.511 363.549 260.985 362.864 261.018 361.747 261.073 360.629 261.117 359.44 261.165Z" fill="#000000" fill-rule="nonzero" fill-opacity="1"/><path d="M363.12 265.55C361.681 265.581 360.307 265.604 358.934 265.618 358.305 265.625 357.953 265.273 357.792 264.694 357.633 264.12 357.955 263.77 358.381 263.495 358.568 263.374 358.799 263.271 359.015 263.258 360.157 263.19 361.3 263.142 362.443 263.114 362.854 263.104 363.254 263.215 363.58 263.491 363.957 263.81 364.141 264.212 364.051 264.71 363.964 265.191 363.679 265.476 363.12 265.55Z" fill="#000000" fill-rule="nonzero" fill-opacity="1"/><path d="M429.266 264.643C429.314 263.873 429.818 263.522 430.398 263.414 431.647 263.18 432.92 263.072 434.19 263.195 434.976 263.272 435.508 263.878 435.48 264.538 435.451 265.256 434.98 265.604 434.022 265.623 432.93 265.645 431.838 265.604 430.744 265.701 430.043 265.763 429.419 265.54 429.266 264.643Z" fill="#000000" fill-rule="nonzero" fill-opacity="1"/><path d="M401.326 236.483C406.239 237.395 410.462 239.541 414.103 242.854 419.009 247.316 421.699 252.949 422.517 259.436 422.975 263.065 422.377 266.667 421.141 270.135 419.337 275.196 416.196 279.258 411.914 282.459 407.674 285.629 402.864 287.286 397.604 287.454 392.363 287.621 387.526 286.152 383.071 283.376 379.405 281.092 376.402 278.179 374.175 274.46 372.427 271.542 371.466 268.385 370.962 265.037 370.345 260.936 370.94 256.974 372.305 253.142 374.061 248.214 377.3 244.343 381.439 241.2 384.56 238.83 388.029 237.22 391.886 236.484 395.008 235.888 398.135 235.999 401.326 236.483M387.61 278.829C388.095 279.059 388.574 279.302 389.065 279.517 392.567 281.048 396.21 281.673 399.981 280.905 405.146 279.853 409.464 277.43 412.507 272.956 415.859 268.028 417.235 262.775 415.469 256.924 413.827 251.485 410.66 247.218 405.524 244.678 400.548 242.217 395.365 242.137 390.126 243.919 381.901 246.717 376.437 255.8 377.362 263.838 378.14 270.591 381.593 275.518 387.61 278.829M397.242 285.542C397.349 285.434 397.47 285.337 397.56 285.216 397.905 284.754 397.969 284.285 397.525 283.846 397.173 283.497 396.766 283.407 396.365 283.742 395.986 284.059 395.614 284.449 395.891 284.982 396.138 285.456 396.473 285.927 397.242 285.542Z" fill="#000000" fill-rule="nonzero" fill-opacity="1"/><path d="M411.885 253.574C415.37 259.94 414.967 266.102 410.911 271.953 407.524 276.839 402.589 279.284 396.759 279.174 388.935 279.027 382.932 274.994 380.203 267.368 377.623 260.157 380.616 251.88 387.424 247.526 393.338 243.743 401.906 244.021 407.497 248.436 409.281 249.846 410.735 251.545 411.885 253.574M391.699 276.592C392.805 276.882 393.521 276.556 393.738 275.419 393.91 274.52 392.89 274.904 392.496 274.572 392.443 274.528 392.349 274.536 392.278 274.507 389.585 273.418 387.084 272.086 385.698 269.332 385.423 268.785 385.124 268.249 384.824 267.716 384.711 267.514 384.559 267.287 384.284 267.462 383.783 267.782 383.305 268.121 383.347 268.832 383.384 269.44 383.618 269.966 383.927 270.472 385.736 273.435 388.443 275.268 391.699 276.592M397.304 260.943C398.194 259.992 398.208 259.028 397.345 258.126 397.164 257.937 396.995 257.773 396.686 257.916 395.727 258.358 395.34 260.034 396.024 260.846 396.37 261.256 396.76 261.383 397.304 260.943M398.244 262.801C398.39 263.278 398.746 263.558 399.181 263.732 399.816 263.986 400.325 263.704 400.748 263.261 401.023 262.972 401.318 262.647 401.127 262.186 400.934 261.722 399.935 261.338 399.234 261.489 398.612 261.624 398.161 261.952 398.244 262.801M392.931 261.917C392.537 262.462 392.807 262.87 393.203 263.256 393.645 263.687 394.154 263.866 394.737 263.597 395.173 263.395 395.51 263.047 395.534 262.55 395.559 262.03 395.121 261.815 394.719 261.649 394.126 261.404 393.53 261.337 392.931 261.917M397.652 265.533C397.931 265.052 397.896 264.553 397.714 264.058 397.486 263.436 397.058 263.293 396.526 263.681 396.129 263.97 395.798 264.33 395.786 264.869 395.773 265.468 395.78 266.155 396.395 266.394 396.958 266.613 397.259 266.007 397.652 265.533Z" fill="#000000" fill-rule="nonzero" fill-opacity="1"/></g></g></g></g></g></svg>